<svg xmlns="http://www.w3.org/2000/svg" xmlns:xlink="http://www.w3.org/1999/xlink" width="512" zoomAndPan="magnify" viewBox="0 0 384 383.999986" height="512" preserveAspectRatio="xMidYMid meet" version="1.0"><defs><clipPath id="382503b816"><path d="M 192 0 C 85.960938 0 0 85.960938 0 192 C 0 298.039062 85.960938 384 192 384 C 298.039062 384 384 298.039062 384 192 C 384 85.960938 298.039062 0 192 0 Z M 192 0 " clip-rule="nonzero"/></clipPath></defs><g clip-path="url(#382503b816)"><path stroke-linecap="butt" transform="matrix(0.75, 0, 0, 0.75, 0.0000072, -0.000000000000042633)" fill="none" stroke-linejoin="miter" d="M 256.000011 0.000000000000056843 C 114.614583 0.000000000000056843 -0.0000096 114.614592 -0.0000096 256.00002 C -0.0000096 397.385448 114.614583 512.000041 256.000011 512.000041 C 397.385439 512.000041 512.000031 397.385448 512.000031 256.00002 C 512.000031 114.614592 397.385439 0.000000000000056843 256.000011 0.000000000000056843 Z M 256.000011 0.000000000000056843 " stroke="#ffffff" stroke-width="142" stroke-opacity="1" stroke-miterlimit="4"/></g></svg>