# Blender 4.1.1
# www.blender.org
mtllib mullet.mtl
o Mullet
v -0.632451 1.577560 0.595229
v -0.598281 1.577560 0.644148
v -0.075616 1.867546 0.267253
v -0.041446 1.867546 0.316173
v -0.261228 1.770884 0.376579
v -0.446839 1.674222 0.485904
v -0.412669 1.674222 0.534823
v -0.227058 1.770884 0.425498
v -0.257863 1.761765 0.374228
v -0.072252 1.858427 0.264903
v -0.038082 1.858427 0.313822
v -0.223693 1.761765 0.423148
v -0.629086 1.568441 0.592879
v -0.443475 1.665103 0.483553
v -0.409305 1.665103 0.532473
v -0.594916 1.568441 0.641798
v -0.401700 1.597137 0.794849
v -0.350381 1.597137 0.825294
v -0.029971 1.887123 0.266219
v -0.153881 1.790461 0.442429
v -0.277791 1.693799 0.618639
v -0.226471 1.693799 0.649084
v -0.102561 1.790461 0.472874
v -0.151787 1.781343 0.438899
v -0.027877 1.878005 0.262689
v -0.100467 1.781343 0.469344
v -0.399606 1.588018 0.791319
v -0.275697 1.684680 0.615109
v -0.224377 1.684680 0.645555
v -0.348286 1.588018 0.821765
v -0.170733 1.590851 0.921013
v -0.111633 1.590851 0.929253
v -0.032252 1.880838 0.289780
v -0.078412 1.784176 0.500191
v -0.124572 1.687513 0.710602
v -0.065473 1.687513 0.718842
v -0.019312 1.784176 0.508431
v -0.077845 1.775057 0.496126
v -0.031685 1.871719 0.285715
v -0.018746 1.775057 0.504366
v -0.172951 1.581733 0.916948
v -0.124006 1.678395 0.706537
v -0.064906 1.678395 0.714777
v -0.113852 1.581733 0.925188
v -0.684819 1.532147 0.510702
v -0.654247 1.532147 0.561947
v -0.105888 1.822133 0.223524
v -0.075316 1.822133 0.274769
v -0.298865 1.725471 0.319250
v -0.491842 1.628809 0.414976
v -0.461270 1.628809 0.466221
v -0.268293 1.725471 0.370495
v -0.295340 1.716352 0.317147
v -0.102363 1.813014 0.221421
v -0.071792 1.813014 0.272666
v -0.264769 1.716352 0.368392
v -0.681295 1.523028 0.508599
v -0.488317 1.619690 0.412873
v -0.457746 1.619690 0.464118
v -0.650723 1.523028 0.559844
v -0.484391 1.551724 0.744964
v -0.435388 1.551724 0.779014
v -0.075692 1.841710 0.244368
v -0.026688 1.841710 0.278417
v -0.211925 1.745048 0.411233
v -0.348158 1.648386 0.578099
v -0.299155 1.648386 0.612148
v -0.162921 1.745048 0.445283
v -0.209583 1.735929 0.407863
v -0.073350 1.832591 0.240997
v -0.024346 1.832591 0.275047
v -0.160580 1.735929 0.441912
v -0.482049 1.542605 0.741594
v -0.345816 1.639267 0.574728
v -0.296813 1.639267 0.608778
v -0.433046 1.542605 0.775643
v -0.231673 1.545438 0.902495
v -0.173317 1.545438 0.914955
v -0.048259 1.835424 0.282825
v -0.109397 1.738762 0.489382
v -0.170535 1.642100 0.695938
v -0.112179 1.642100 0.708398
v -0.051041 1.738762 0.501841
v -0.108540 1.729643 0.485368
v -0.047402 1.826305 0.278811
v -0.050184 1.729643 0.497827
v -0.230816 1.536319 0.898482
v -0.169678 1.632981 0.691925
v -0.111322 1.632981 0.704384
v -0.172460 1.536319 0.910941
v -0.053328 1.839761 0.331643
v -0.022165 1.902310 0.155868
v -0.088159 1.936423 0.119062
v -0.030196 1.936423 0.104888
v -0.080128 1.902310 0.170043
v -0.021190 1.911429 0.159855
v -0.079153 1.911429 0.174029
v -0.054303 1.830642 0.327656
v -0.089134 1.927304 0.115076
v -0.031171 1.927304 0.100901
v -0.074138 1.839761 0.314926
v -0.036492 1.839761 0.268629
v -0.155431 1.902310 0.155995
v -0.230261 1.936423 0.166505
v -0.192616 1.936423 0.120207
v -0.193077 1.902310 0.202293
v -0.152247 1.911429 0.158584
v -0.189892 1.911429 0.204882
v -0.077322 1.830642 0.312337
v -0.233446 1.927304 0.163915
v -0.195800 1.927304 0.117618
v -0.039677 1.830642 0.266039
v -0.036578 1.859641 0.325470
v -0.117872 1.922190 0.166539
v -0.192702 1.956303 0.177048
v -0.155056 1.956303 0.130751
v -0.155518 1.922190 0.212836
v -0.114688 1.931309 0.169128
v -0.152333 1.931309 0.215426
v -0.039763 1.850522 0.322881
v -0.195886 1.947184 0.174459
v -0.158241 1.947184 0.128161
v -0.002117 1.850522 0.276583
v 0.000000 1.870469 0.327024
v 0.000000 1.887123 0.283999
v 0.000000 1.878005 0.279227
v 0.000000 1.859717 0.326472
v 0.000000 1.824617 0.420399
v 0.000000 1.880838 0.294276
v 0.000000 1.871719 0.290132
v 0.000000 1.814311 0.418918
v 0.000000 1.819461 0.329396
v 0.000000 1.835424 0.293128
v 0.000000 1.826305 0.288932
v 0.000000 1.808987 0.328278
v 0.000000 1.839761 0.318602
v 0.000000 1.840801 0.291140
v 0.000000 1.830642 0.314377
v 0.000000 1.852625 0.289176
v 0.000000 1.859641 0.280485
v 0.000000 1.860301 0.278158
v 0.000000 1.856585 0.278305
v 0.632451 1.577560 0.595229
v 0.598281 1.577560 0.644148
v 0.075616 1.867546 0.267253
v 0.041446 1.867546 0.316173
v 0.261228 1.770884 0.376579
v 0.446839 1.674222 0.485904
v 0.412669 1.674222 0.534823
v 0.227058 1.770884 0.425498
v 0.257863 1.761765 0.374228
v 0.072252 1.858427 0.264903
v 0.038082 1.858427 0.313822
v 0.223693 1.761765 0.423148
v 0.629086 1.568441 0.592879
v 0.443475 1.665103 0.483553
v 0.409305 1.665103 0.532473
v 0.594916 1.568441 0.641798
v 0.401700 1.597137 0.794849
v 0.350381 1.597137 0.825294
v 0.029971 1.887123 0.266219
v 0.153881 1.790461 0.442429
v 0.277791 1.693799 0.618639
v 0.226471 1.693799 0.649084
v 0.102561 1.790461 0.472874
v 0.151787 1.781343 0.438899
v 0.027877 1.878005 0.262689
v 0.100467 1.781343 0.469344
v 0.399606 1.588018 0.791319
v 0.275697 1.684680 0.615109
v 0.224377 1.684680 0.645555
v 0.348286 1.588018 0.821765
v 0.170733 1.590851 0.921013
v 0.111633 1.590851 0.929253
v 0.032252 1.880838 0.289780
v 0.078412 1.784176 0.500191
v 0.124572 1.687513 0.710602
v 0.065473 1.687513 0.718842
v 0.019312 1.784176 0.508431
v 0.077845 1.775057 0.496126
v 0.031685 1.871719 0.285715
v 0.018746 1.775057 0.504366
v 0.172951 1.581733 0.916948
v 0.124006 1.678395 0.706537
v 0.064906 1.678395 0.714777
v 0.113852 1.581733 0.925188
v 0.684819 1.532147 0.510702
v 0.654247 1.532147 0.561947
v 0.105888 1.822133 0.223524
v 0.075316 1.822133 0.274769
v 0.298865 1.725471 0.319250
v 0.491842 1.628809 0.414976
v 0.461270 1.628809 0.466221
v 0.268293 1.725471 0.370495
v 0.295340 1.716352 0.317147
v 0.102363 1.813014 0.221421
v 0.071792 1.813014 0.272666
v 0.264769 1.716352 0.368392
v 0.681295 1.523028 0.508599
v 0.488317 1.619690 0.412873
v 0.457746 1.619690 0.464118
v 0.650723 1.523028 0.559844
v 0.484391 1.551724 0.744964
v 0.435388 1.551724 0.779014
v 0.075692 1.841710 0.244368
v 0.026688 1.841710 0.278417
v 0.211925 1.745048 0.411233
v 0.348158 1.648386 0.578099
v 0.299155 1.648386 0.612148
v 0.162921 1.745048 0.445283
v 0.209583 1.735929 0.407863
v 0.073350 1.832591 0.240997
v 0.024346 1.832591 0.275047
v 0.160580 1.735929 0.441912
v 0.482049 1.542605 0.741594
v 0.345816 1.639267 0.574728
v 0.296813 1.639267 0.608778
v 0.433046 1.542605 0.775643
v 0.231673 1.545438 0.902495
v 0.173317 1.545438 0.914955
v 0.048259 1.835424 0.282825
v 0.109397 1.738762 0.489382
v 0.170535 1.642100 0.695938
v 0.112179 1.642100 0.708398
v 0.051041 1.738762 0.501841
v 0.108540 1.729643 0.485368
v 0.047402 1.826305 0.278811
v 0.050184 1.729643 0.497827
v 0.230816 1.536319 0.898482
v 0.169678 1.632981 0.691925
v 0.111322 1.632981 0.704384
v 0.172460 1.536319 0.910941
v 0.053328 1.839761 0.331643
v 0.022165 1.902310 0.155868
v 0.088159 1.936423 0.119062
v 0.030196 1.936423 0.104888
v 0.080128 1.902310 0.170043
v 0.021190 1.911429 0.159855
v 0.079153 1.911429 0.174029
v 0.054303 1.830642 0.327656
v 0.089134 1.927304 0.115076
v 0.031171 1.927304 0.100901
v 0.074138 1.839761 0.314926
v 0.036492 1.839761 0.268629
v 0.155431 1.902310 0.155995
v 0.230261 1.936423 0.166505
v 0.192616 1.936423 0.120207
v 0.193077 1.902310 0.202293
v 0.152247 1.911429 0.158584
v 0.189892 1.911429 0.204882
v 0.077322 1.830642 0.312337
v 0.233446 1.927304 0.163915
v 0.195800 1.927304 0.117618
v 0.039677 1.830642 0.266039
v 0.036578 1.859641 0.325470
v 0.117872 1.922190 0.166539
v 0.192702 1.956303 0.177048
v 0.155056 1.956303 0.130751
v 0.155518 1.922190 0.212836
v 0.114688 1.931309 0.169128
v 0.152333 1.931309 0.215426
v 0.039763 1.850522 0.322881
v 0.195886 1.947184 0.174459
v 0.158241 1.947184 0.128161
v 0.002117 1.850522 0.276583
vn -0.3365 0.9119 0.2350
vn 0.3365 -0.9119 -0.2350
vn -0.5184 0.0290 -0.8546
vn 0.5184 -0.0290 0.8546
vn -0.5185 0.0290 -0.8546
vn 0.5185 -0.0290 0.8546
vn 0.7476 0.4104 -0.5222
vn -0.7476 -0.4104 0.5222
vn -0.2094 0.9119 0.3530
vn 0.2094 -0.9119 -0.3530
vn -0.8251 0.0290 -0.5643
vn 0.8251 -0.0290 0.5643
vn -0.4653 -0.4104 0.7843
vn -0.0567 0.9119 0.4065
vn 0.0566 -0.9122 -0.4059
vn 0.0567 -0.9119 -0.4065
vn -0.9791 0.0290 -0.2015
vn 0.9791 -0.0290 0.2015
vn -0.9765 0.1551 -0.1495
vn -0.1279 -0.3777 0.9171
vn 0.9765 -0.1551 0.1495
vn -0.3525 0.9119 0.2103
vn 0.3525 -0.9119 -0.2103
vn -0.4558 0.0290 -0.8896
vn 0.4558 -0.0290 0.8896
vn 0.7831 0.4104 -0.4672
vn -0.7831 -0.4104 0.4672
vn -0.2342 0.9119 0.3370
vn 0.2342 -0.9119 -0.3370
vn -0.7825 0.0290 -0.6220
vn 0.7825 -0.0290 0.6220
vn 0.5203 0.4104 -0.7489
vn -0.5203 -0.4104 0.7489
vn -0.0857 0.9119 0.4014
vn 0.0857 -0.9119 -0.4014
vn -0.9621 0.0290 -0.2712
vn 0.9621 -0.0290 0.2712
vn -0.1904 -0.4104 0.8918
vn 0.0975 0.9119 0.3987
vn -0.0975 -0.9119 -0.3987
vn -0.9842 0.0290 0.1744
vn 0.9842 -0.0290 -0.1744
vn -0.2166 0.4104 -0.8858
vn 0.2166 -0.4104 0.8858
vn 0.3184 0.9119 0.2589
vn -0.3184 -0.9119 -0.2589
vn -0.6792 0.0290 0.7333
vn -0.6792 0.0290 0.7334
vn 0.6792 -0.0290 -0.7333
vn -0.7075 0.4104 -0.5753
vn 0.7075 -0.4104 0.5753
vn 0.6792 -0.0290 -0.7334
vn 0.1904 0.4104 -0.8918
vn 0.1259 0.4104 -0.9032
vn 0.4653 0.4104 -0.7843
vn 0.3365 0.9119 0.2350
vn -0.3365 -0.9119 -0.2350
vn 0.5184 0.0290 -0.8546
vn -0.5184 -0.0290 0.8546
vn 0.5185 0.0290 -0.8546
vn -0.5185 -0.0290 0.8546
vn -0.7476 0.4104 -0.5222
vn 0.7476 -0.4104 0.5222
vn 0.2094 0.9119 0.3530
vn -0.2094 -0.9119 -0.3530
vn 0.8251 0.0290 -0.5643
vn -0.8251 -0.0290 0.5643
vn 0.4653 -0.4104 0.7843
vn 0.0567 0.9119 0.4065
vn -0.0566 -0.9122 -0.4059
vn -0.0567 -0.9119 -0.4065
vn 0.9791 0.0290 -0.2015
vn -0.9791 -0.0290 0.2015
vn 0.9765 0.1551 -0.1495
vn 0.1279 -0.3777 0.9171
vn -0.9765 -0.1551 0.1495
vn 0.3525 0.9119 0.2103
vn -0.3525 -0.9119 -0.2103
vn 0.4558 0.0290 -0.8896
vn -0.4558 -0.0290 0.8896
vn -0.7831 0.4104 -0.4672
vn 0.7831 -0.4104 0.4672
vn 0.2342 0.9119 0.3370
vn -0.2342 -0.9119 -0.3370
vn 0.7825 0.0290 -0.6220
vn -0.7825 -0.0290 0.6220
vn -0.5203 0.4104 -0.7489
vn 0.5203 -0.4104 0.7489
vn 0.0857 0.9119 0.4014
vn -0.0857 -0.9119 -0.4014
vn 0.9621 0.0290 -0.2712
vn -0.9621 -0.0290 0.2712
vn 0.1904 -0.4104 0.8918
vn -0.0975 0.9119 0.3987
vn 0.0975 -0.9119 -0.3987
vn 0.9842 0.0290 0.1744
vn -0.9842 -0.0290 -0.1744
vn 0.2166 0.4104 -0.8858
vn -0.2166 -0.4104 0.8858
vn -0.3184 0.9119 0.2589
vn 0.3184 -0.9119 -0.2589
vn 0.6792 0.0290 0.7333
vn -0.6792 -0.0290 -0.7333
vn 0.7075 0.4104 -0.5753
vn -0.7075 -0.4104 0.5753
vn -0.6792 -0.0290 -0.7334
vn -0.1904 0.4104 -0.8918
vn -0.1259 0.4104 -0.9032
vn -0.4653 0.4104 -0.7843
vt 0.000000 0.663486
vt 1.000000 0.663486
vt 1.000000 0.996819
vt 0.000000 0.996819
vt 0.000000 -0.003181
vt 1.000000 -0.003181
vt 1.000000 0.330153
vt 0.000000 0.330153
vt 1.000000 0.939389
vt 1.000000 0.933756
vt 1.000000 0.802946
vt 1.000000 0.798853
vt 1.000000 0.941770
vt 1.000000 0.937098
vt 0.000000 0.243963
vt 1.000000 0.243963
vt 0.000000 0.243963
vt 1.000000 0.243963
vt 0.920023 -0.003181
vt 0.936843 -0.003181
vt 0.971652 -0.003181
vt 1.000000 -0.003181
vt 1.000000 -0.000902
vt 1.000000 0.031852
vt 1.000000 0.041182
vt 0.812295 0.996819
vt 0.826979 0.996819
vt 0.536132 0.996819
vt 0.545721 0.996819
vt 0.543208 0.996819
vt 0.584011 0.996819
s 0
f 5/1/1 8/2/1 4/3/1 3/4/1
f 1/5/1 2/6/1 7/7/1 6/8/1
f 6/8/1 7/7/1 8/2/1 5/1/1
f 9/1/2 10/4/2 11/3/2 12/2/2
f 13/5/2 14/8/2 15/7/2 16/6/2
f 14/8/2 9/1/2 12/2/2 15/7/2
f 5/1/3 3/4/3 10/4/3 9/1/3
f 4/3/4 8/2/4 12/2/4 11/3/4
f 1/5/5 6/8/5 14/8/5 13/5/5
f 8/2/6 7/7/6 15/7/6 12/2/6
f 6/8/5 5/1/5 9/1/5 14/8/5
f 3/4/7 4/3/7 11/3/7 10/4/7
f 2/6/8 1/5/8 13/5/8 16/6/8
f 7/7/6 2/6/6 16/6/6 15/7/6
f 17/5/9 18/6/9 22/7/9 21/8/9
f 21/8/9 22/7/9 23/2/9 20/1/9
f 27/5/10 28/8/10 29/7/10 30/6/10
f 28/8/10 24/1/10 26/2/10 29/7/10
f 20/1/11 19/4/11 25/4/11 24/1/11
f 124/9/12 23/2/12 26/2/12 127/10/12
f 17/5/11 21/8/11 28/8/11 27/5/11
f 23/2/12 22/7/12 29/7/12 26/2/12
f 21/8/11 20/1/11 24/1/11 28/8/11
f 18/6/13 17/5/13 27/5/13 30/6/13
f 22/7/12 18/6/12 30/6/12 29/7/12
f 31/5/14 32/6/14 36/7/14 35/8/14
f 35/8/14 36/7/14 37/2/14 34/1/14
f 41/5/15 42/8/15 43/7/15 44/6/15
f 42/8/16 38/1/16 40/2/16 43/7/16
f 34/1/17 33/4/17 39/4/17 38/1/17
f 128/11/18 37/2/18 40/2/18 131/12/18
f 31/5/19 35/8/19 42/8/19 41/5/19
f 37/2/18 36/7/18 43/7/18 40/2/18
f 35/8/17 34/1/17 38/1/17 42/8/17
f 32/6/20 31/5/20 41/5/20 44/6/20
f 36/7/21 32/6/21 44/6/21 43/7/21
f 49/1/22 52/2/22 48/3/22 47/4/22
f 45/5/22 46/6/22 51/7/22 50/8/22
f 50/8/22 51/7/22 52/2/22 49/1/22
f 53/1/23 54/4/23 55/3/23 56/2/23
f 57/5/23 58/8/23 59/7/23 60/6/23
f 58/8/23 53/1/23 56/2/23 59/7/23
f 49/1/24 47/4/24 54/4/24 53/1/24
f 48/3/25 52/2/25 56/2/25 55/3/25
f 45/5/24 50/8/24 58/8/24 57/5/24
f 52/2/25 51/7/25 59/7/25 56/2/25
f 50/8/24 49/1/24 53/1/24 58/8/24
f 47/4/26 48/3/26 55/3/26 54/4/26
f 46/6/27 45/5/27 57/5/27 60/6/27
f 51/7/25 46/6/25 60/6/25 59/7/25
f 65/1/28 68/2/28 64/3/28 63/4/28
f 61/5/28 62/6/28 67/7/28 66/8/28
f 66/8/28 67/7/28 68/2/28 65/1/28
f 69/1/29 70/4/29 71/3/29 72/2/29
f 73/5/29 74/8/29 75/7/29 76/6/29
f 74/8/29 69/1/29 72/2/29 75/7/29
f 65/1/30 63/4/30 70/4/30 69/1/30
f 64/3/31 68/2/31 72/2/31 71/3/31
f 61/5/30 66/8/30 74/8/30 73/5/30
f 68/2/31 67/7/31 75/7/31 72/2/31
f 66/8/30 65/1/30 69/1/30 74/8/30
f 63/4/32 64/3/32 71/3/32 70/4/32
f 62/6/33 61/5/33 73/5/33 76/6/33
f 67/7/31 62/6/31 76/6/31 75/7/31
f 77/5/34 78/6/34 82/7/34 81/8/34
f 81/8/34 82/7/34 83/2/34 80/1/34
f 87/5/35 88/8/35 89/7/35 90/6/35
f 88/8/35 84/1/35 86/2/35 89/7/35
f 80/1/36 79/4/36 85/4/36 84/1/36
f 132/13/37 83/2/37 86/2/37 135/14/37
f 77/5/36 81/8/36 88/8/36 87/5/36
f 83/2/37 82/7/37 89/7/37 86/2/37
f 81/8/36 80/1/36 84/1/36 88/8/36
f 78/6/38 77/5/38 87/5/38 90/6/38
f 82/7/37 78/6/37 90/6/37 89/7/37
f 97/15/39 96/16/39 94/7/39 93/8/39
f 95/17/40 99/8/40 100/7/40 92/18/40
f 97/15/41 93/8/41 99/8/41 95/17/41
f 91/5/41 97/15/41 95/17/41 98/5/41
f 94/7/42 96/16/42 92/18/42 100/7/42
f 93/8/43 94/7/43 100/7/43 99/8/43
f 136/19/44 91/5/44 98/5/44 138/20/44
f 108/15/45 107/16/45 105/7/45 104/8/45
f 101/5/45 102/6/45 107/16/45 108/15/45
f 106/17/46 110/8/46 111/7/46 103/18/46
f 109/5/46 106/17/46 103/18/46 112/6/46
f 108/15/47 104/8/47 110/8/47 106/17/47
f 101/5/48 108/15/48 106/17/48 109/5/48
f 105/7/49 107/16/49 103/18/49 111/7/49
f 104/8/50 105/7/50 111/7/50 110/8/50
f 102/6/51 101/5/51 109/5/51 112/6/51
f 107/16/52 102/6/52 112/6/52 103/18/52
f 119/15/45 118/16/45 116/7/45 115/8/45
f 117/17/46 121/8/46 122/7/46 114/18/46
f 120/5/46 117/17/46 114/18/46 123/6/46
f 119/15/47 115/8/47 121/8/47 117/17/47
f 113/5/47 119/15/47 117/17/47 120/5/47
f 116/7/49 118/16/49 114/18/49 122/7/49
f 115/8/50 116/7/50 122/7/50 121/8/50
f 140/21/51 113/5/51 120/5/51 123/6/51 142/22/51
f 118/16/49 141/23/49 142/22/49 123/6/49 114/18/49
f 113/5/45 140/21/45 141/23/45 118/16/45 119/15/45
f 98/5/40 95/17/40 92/18/40 137/24/40 138/20/40
f 96/16/42 139/25/42 137/24/42 92/18/42
f 91/5/39 136/19/39 139/25/39 96/16/39 97/15/39
f 84/1/35 85/4/35 134/26/35 135/14/35 86/2/35
f 79/4/53 133/27/53 134/26/53 85/4/53
f 80/1/34 83/2/34 132/13/34 133/27/34 79/4/34
f 38/1/16 39/4/16 130/28/16 131/12/16 40/2/16
f 33/4/54 129/29/54 130/28/54 39/4/54
f 34/1/14 37/2/14 128/11/14 129/29/14 33/4/14
f 24/1/10 25/4/10 126/30/10 127/10/10 26/2/10
f 19/4/55 125/31/55 126/30/55 25/4/55
f 20/1/9 23/2/9 124/9/9 125/31/9 19/4/9
f 147/1/56 145/4/56 146/3/56 150/2/56
f 143/5/56 148/8/56 149/7/56 144/6/56
f 148/8/56 147/1/56 150/2/56 149/7/56
f 151/1/57 154/2/57 153/3/57 152/4/57
f 155/5/57 158/6/57 157/7/57 156/8/57
f 156/8/57 157/7/57 154/2/57 151/1/57
f 147/1/58 151/1/58 152/4/58 145/4/58
f 146/3/59 153/3/59 154/2/59 150/2/59
f 143/5/60 155/5/60 156/8/60 148/8/60
f 150/2/61 154/2/61 157/7/61 149/7/61
f 148/8/58 156/8/58 151/1/58 147/1/58
f 145/4/62 152/4/62 153/3/62 146/3/62
f 144/6/63 158/6/63 155/5/63 143/5/63
f 149/7/61 157/7/61 158/6/61 144/6/61
f 159/5/64 163/8/64 164/7/64 160/6/64
f 163/8/64 162/1/64 165/2/64 164/7/64
f 169/5/65 172/6/65 171/7/65 170/8/65
f 170/8/65 171/7/65 168/2/65 166/1/65
f 162/1/66 166/1/66 167/4/66 161/4/66
f 124/9/67 127/10/67 168/2/67 165/2/67
f 159/5/66 169/5/66 170/8/66 163/8/66
f 165/2/67 168/2/67 171/7/67 164/7/67
f 163/8/66 170/8/66 166/1/66 162/1/66
f 160/6/68 172/6/68 169/5/68 159/5/68
f 164/7/67 171/7/67 172/6/67 160/6/67
f 173/5/69 177/8/69 178/7/69 174/6/69
f 177/8/69 176/1/69 179/2/69 178/7/69
f 183/5/70 186/6/70 185/7/70 184/8/70
f 184/8/71 185/7/71 182/2/71 180/1/71
f 176/1/72 180/1/72 181/4/72 175/4/72
f 128/11/73 131/12/73 182/2/73 179/2/73
f 173/5/74 183/5/74 184/8/74 177/8/74
f 179/2/73 182/2/73 185/7/73 178/7/73
f 177/8/72 184/8/72 180/1/72 176/1/72
f 174/6/75 186/6/75 183/5/75 173/5/75
f 178/7/76 185/7/76 186/6/76 174/6/76
f 191/1/77 189/4/77 190/3/77 194/2/77
f 187/5/77 192/8/77 193/7/77 188/6/77
f 192/8/77 191/1/77 194/2/77 193/7/77
f 195/1/78 198/2/78 197/3/78 196/4/78
f 199/5/78 202/6/78 201/7/78 200/8/78
f 200/8/78 201/7/78 198/2/78 195/1/78
f 191/1/79 195/1/79 196/4/79 189/4/79
f 190/3/80 197/3/80 198/2/80 194/2/80
f 187/5/79 199/5/79 200/8/79 192/8/79
f 194/2/80 198/2/80 201/7/80 193/7/80
f 192/8/79 200/8/79 195/1/79 191/1/79
f 189/4/81 196/4/81 197/3/81 190/3/81
f 188/6/82 202/6/82 199/5/82 187/5/82
f 193/7/80 201/7/80 202/6/80 188/6/80
f 207/1/83 205/4/83 206/3/83 210/2/83
f 203/5/83 208/8/83 209/7/83 204/6/83
f 208/8/83 207/1/83 210/2/83 209/7/83
f 211/1/84 214/2/84 213/3/84 212/4/84
f 215/5/84 218/6/84 217/7/84 216/8/84
f 216/8/84 217/7/84 214/2/84 211/1/84
f 207/1/85 211/1/85 212/4/85 205/4/85
f 206/3/86 213/3/86 214/2/86 210/2/86
f 203/5/85 215/5/85 216/8/85 208/8/85
f 210/2/86 214/2/86 217/7/86 209/7/86
f 208/8/85 216/8/85 211/1/85 207/1/85
f 205/4/87 212/4/87 213/3/87 206/3/87
f 204/6/88 218/6/88 215/5/88 203/5/88
f 209/7/86 217/7/86 218/6/86 204/6/86
f 219/5/89 223/8/89 224/7/89 220/6/89
f 223/8/89 222/1/89 225/2/89 224/7/89
f 229/5/90 232/6/90 231/7/90 230/8/90
f 230/8/90 231/7/90 228/2/90 226/1/90
f 222/1/91 226/1/91 227/4/91 221/4/91
f 132/13/92 135/14/92 228/2/92 225/2/92
f 219/5/91 229/5/91 230/8/91 223/8/91
f 225/2/92 228/2/92 231/7/92 224/7/92
f 223/8/91 230/8/91 226/1/91 222/1/91
f 220/6/93 232/6/93 229/5/93 219/5/93
f 224/7/92 231/7/92 232/6/92 220/6/92
f 239/15/94 235/8/94 236/7/94 238/16/94
f 237/17/95 234/18/95 242/7/95 241/8/95
f 239/15/96 237/17/96 241/8/96 235/8/96
f 233/5/96 240/5/96 237/17/96 239/15/96
f 236/7/97 242/7/97 234/18/97 238/16/97
f 235/8/98 241/8/98 242/7/98 236/7/98
f 136/19/99 138/20/99 240/5/99 233/5/99
f 250/15/100 246/8/100 247/7/100 249/16/100
f 243/5/100 250/15/100 249/16/100 244/6/100
f 248/17/101 245/18/101 253/7/101 252/8/101
f 251/5/101 254/6/101 245/18/101 248/17/101
f 250/15/102 248/17/102 252/8/102 246/8/102
f 243/5/102 251/5/102 248/17/102 250/15/102
f 247/7/103 253/7/103 245/18/103 249/16/103
f 246/8/104 252/8/104 253/7/104 247/7/104
f 244/6/105 254/6/105 251/5/105 243/5/105
f 249/16/106 245/18/106 254/6/106 244/6/106
f 261/15/100 257/8/100 258/7/100 260/16/100
f 259/17/101 256/18/101 264/7/101 263/8/101
f 262/5/101 265/6/101 256/18/101 259/17/101
f 261/15/102 259/17/102 263/8/102 257/8/102
f 255/5/102 262/5/102 259/17/102 261/15/102
f 258/7/103 264/7/103 256/18/103 260/16/103
f 257/8/104 263/8/104 264/7/104 258/7/104
f 140/21/105 142/22/105 265/6/105 262/5/105 255/5/105
f 260/16/103 256/18/103 265/6/103 142/22/103 141/23/103
f 255/5/100 261/15/100 260/16/100 141/23/100 140/21/100
f 240/5/95 138/20/95 137/24/95 234/18/95 237/17/95
f 238/16/97 234/18/97 137/24/97 139/25/97
f 233/5/94 239/15/94 238/16/94 139/25/94 136/19/94
f 226/1/90 228/2/90 135/14/90 134/26/90 227/4/90
f 221/4/107 227/4/107 134/26/107 133/27/107
f 222/1/89 221/4/89 133/27/89 132/13/89 225/2/89
f 180/1/71 182/2/71 131/12/71 130/28/71 181/4/71
f 175/4/108 181/4/108 130/28/108 129/29/108
f 176/1/69 175/4/69 129/29/69 128/11/69 179/2/69
f 166/1/65 168/2/65 127/10/65 126/30/65 167/4/65
f 161/4/109 167/4/109 126/30/109 125/31/109
f 162/1/64 161/4/64 125/31/64 124/9/64 165/2/64
